<?xml version="1.0" encoding="UTF-8"?><svg id="_격리_모드" xmlns="http://www.w3.org/2000/svg" xmlns:xlink="http://www.w3.org/1999/xlink" viewBox="0 0 119.75 55.23"><defs><style>.cls-1{fill:url(#_무제_그라디언트_277);stroke:#000;stroke-miterlimit:10;stroke-width:2px;}</style><radialGradient id="_무제_그라디언트_277" cx="72.53" cy="22.87" fx="72.53" fy="22.87" r="49.74" gradientTransform="translate(120.36 39.05) rotate(-180) scale(.82 .49)" gradientUnits="userSpaceOnUse"><stop offset=".16" stop-color="#ffc800"/><stop offset=".6" stop-color="#e68f00"/><stop offset=".68" stop-color="#e27b00"/><stop offset=".84" stop-color="#d84a00"/><stop offset="1" stop-color="#ce1400"/></radialGradient></defs><path class="cls-1" d="m8.46,39.23s13.83-.78,15.06,8.82c0,0,15.98-6.35,24.84,5.52,0,0,12.17-15.91,26.63-1.29,0,0,7.91-12.01,19.51-1.57,0,0,1.31-7.83,11.85-5.81,0,0-12.32-10.11,9.59-17.55,0,0-20.4-4.19-9.78-17.74,0,0-16.3,6.39-19.65-7.33,0,0-12.31,15.42-24.8-.33,0,0-12.68,18.23-25.95.53,0,0-2.52,15.74-19.51,7.82,0,0,4.47,12.87-10.88,13.63,0,0,14.96,4.98,3.09,15.29Z"/></svg>