<svg xmlns="http://www.w3.org/2000/svg" viewBox="0 0 100.11 100.11"><defs><style>.cls-1{fill:#fff;}</style></defs><title>icon_time</title><g id="Layer_2" data-name="Layer 2"><g id="Layer_1-2" data-name="Layer 1"><path class="cls-1" d="M93.4,24.93A49.83,49.83,0,0,0,75.18,6.71,49,49,0,0,0,50.06,0,49,49,0,0,0,24.93,6.71,49.9,49.9,0,0,0,6.71,24.93,49,49,0,0,0,0,50.06,49,49,0,0,0,6.71,75.18,49.83,49.83,0,0,0,24.93,93.4a48.94,48.94,0,0,0,25.13,6.71A48.88,48.88,0,0,0,75.18,93.4,49.75,49.75,0,0,0,93.4,75.18a49,49,0,0,0,6.71-25.12A49,49,0,0,0,93.4,24.93Zm-7,46.21A42,42,0,0,1,71.14,86.43a41.14,41.14,0,0,1-21.08,5.63A41.11,41.11,0,0,1,29,86.43,41.91,41.91,0,0,1,13.69,71.14,41.14,41.14,0,0,1,8.06,50.06,41.11,41.11,0,0,1,13.69,29,41.83,41.83,0,0,1,29,13.69,41.11,41.11,0,0,1,50.06,8.06a41.14,41.14,0,0,1,21.08,5.63A41.91,41.91,0,0,1,86.43,29a41.11,41.11,0,0,1,5.63,21.08,41.14,41.14,0,0,1-5.63,21.08Z"/><path class="cls-1" d="M56.32,25H52.15a2,2,0,0,0-2.09,2.08v23H35.46a2,2,0,0,0-2.09,2.08v4.17a2,2,0,0,0,2.09,2.09H56.32a2,2,0,0,0,1.49-.59,2,2,0,0,0,.59-1.5V27.11a2.05,2.05,0,0,0-.59-1.5A2,2,0,0,0,56.32,25Z"/></g></g></svg>