<svg xmlns="http://www.w3.org/2000/svg" viewBox="0 0 150 150"><defs><style>.cls-1{fill:#fff;}</style></defs><title>icon_clock</title><g id="Layer_2" data-name="Layer 2"><g id="Layer_1-2" data-name="Layer 1"><path class="cls-1" d="M75,0a75,75,0,1,0,75,75A75.09,75.09,0,0,0,75,0Zm31.54,125.09-3.23-5.56a2.12,2.12,0,0,0-1.81-1,2.07,2.07,0,0,0-1,.28,2.1,2.1,0,0,0-.76,2.86l3.24,5.57a59,59,0,0,1-24,6.88v-7.85a4,4,0,1,0-7.9,0v7.85a58.81,58.81,0,0,1-23.66-6.72l3.2-5.58a2.1,2.1,0,0,0-.77-2.85,2,2,0,0,0-1-.28,2.11,2.11,0,0,0-1.82,1l-3.19,5.58A59.55,59.55,0,0,1,25.83,108L32.61,104a3.95,3.95,0,1,0-3.95-6.84l-6.79,3.93a58.82,58.82,0,0,1-6-23.85l6.44,0a2.07,2.07,0,0,0,1.48-.62,2,2,0,0,0,.6-1.47,2.09,2.09,0,0,0-2.08-2.09l-6.46,0a58.91,58.91,0,0,1,6.05-24.2l6.79,3.92A3.95,3.95,0,1,0,32.61,46l-6.78-3.92A59.77,59.77,0,0,1,43.46,24.91l3.23,5.56a2.08,2.08,0,0,0,.77.76,2.11,2.11,0,0,0,2.09,0,2.08,2.08,0,0,0,.75-2.86l-3.23-5.56a58.7,58.7,0,0,1,24-6.88v7.85a4,4,0,0,0,7.9,0V15.93a58.65,58.65,0,0,1,23.66,6.71l-3.2,5.58a2.09,2.09,0,0,0,.77,2.85,2,2,0,0,0,1,.28A2.08,2.08,0,0,0,103,30.3l3.2-5.58a59.67,59.67,0,0,1,17.94,17.33L117.39,46a3.95,3.95,0,1,0,4,6.84l6.79-3.92a58.78,58.78,0,0,1,6,23.84l-6.44,0a2.09,2.09,0,0,0-1,3.9,2,2,0,0,0,1,.28h0l6.45,0a59,59,0,0,1-6.05,24.21l-6.79-3.93a3.95,3.95,0,1,0-4,6.84l6.78,3.92a59.77,59.77,0,0,1-17.63,17.14Z"/><path class="cls-1" d="M104.17,53.6l-25.32,14a8.28,8.28,0,0,0-7.7,0l-25.32-14A5,5,0,1,0,41,62.27L66.85,76.6a8.3,8.3,0,0,0,16.3,0L109,62.27a5,5,0,0,0-4.81-8.67Z"/></g></g></svg>