<?xml version="1.0" standalone="no"?>
<!DOCTYPE svg PUBLIC "-//W3C//DTD SVG 20010904//EN"
 "http://www.w3.org/TR/2001/REC-SVG-20010904/DTD/svg10.dtd">
<svg version="1.0" xmlns="http://www.w3.org/2000/svg"
 width="401.000000pt" height="401.000000pt" viewBox="0 0 401.000000 401.000000"
 preserveAspectRatio="xMidYMid meet">
<metadata>
Created by potrace 1.11, written by Peter Selinger 2001-2013
</metadata>
<g transform="translate(0.000000,401.000000) scale(0.100000,-0.100000)"
fill="#000000" stroke="none">
<path d="M1977 4004 c-1 -1 -37 -4 -80 -5 -43 -1 -99 -5 -125 -9 -26 -5 -69
-11 -96 -14 -213 -29 -495 -134 -711 -265 -367 -223 -661 -572 -818 -971 -43
-108 -99 -302 -111 -380 -37 -258 -39 -455 -5 -675 51 -330 214 -693 429 -955
73 -89 218 -230 315 -305 289 -225 640 -368 1005 -411 105 -12 336 -11 450 3
729 87 1348 554 1624 1225 36 86 101 298 111 361 3 18 10 57 15 87 16 98 23
192 23 320 -3 953 -671 1768 -1603 1954 -119 24 -218 35 -358 40 -34 1 -63 1
-65 0z m303 -833 c275 -67 525 -232 691 -457 349 -473 302 -1129 -112 -1551
-228 -232 -528 -357 -854 -356 -372 1 -699 157 -934 448 -116 143 -210 336
-237 488 -2 17 -7 33 -9 37 -19 31 -23 307 -6 411 78 476 437 864 905 979 167
41 390 42 556 1z"/>
<path d="M1393 2794 c-46 -16 -72 -41 -93 -87 -36 -79 -3 -169 74 -206 43 -20
59 -20 463 -19 300 1 428 -2 454 -10 107 -36 146 -173 71 -255 -43 -48 -59
-50 -382 -53 -282 -2 -309 -3 -364 -23 -114 -41 -196 -105 -261 -206 -62 -97
-86 -261 -55 -375 46 -167 189 -306 357 -345 37 -9 182 -12 506 -11 l453 1 36
25 c105 71 96 218 -17 278 -26 14 -88 16 -465 17 -444 2 -464 4 -510 42 -62
52 -68 157 -14 219 46 52 62 54 391 58 337 4 362 8 464 71 98 61 196 200 215
305 47 262 -102 502 -356 571 -63 17 -918 19 -967 3z"/>
</g>
</svg>
