<?xml version="1.0" standalone="no"?>
<!DOCTYPE svg PUBLIC "-//W3C//DTD SVG 20010904//EN"
 "http://www.w3.org/TR/2001/REC-SVG-20010904/DTD/svg10.dtd">
<svg version="1.0" xmlns="http://www.w3.org/2000/svg"
 width="100.000000pt" height="100.000000pt" viewBox="0 0 100.000000 100.000000"
 preserveAspectRatio="xMidYMid meet">

<g transform="translate(0.000000,100.000000) scale(0.100000,-0.100000)"
fill="#000000" stroke="none">
<path d="M383 985 c-226 -61 -368 -251 -350 -468 8 -94 50 -181 127 -261 l60
-63 0 -97 c0 -54 4 -96 8 -94 4 1 43 28 86 58 l78 55 106 1 c160 2 261 43 360
148 235 249 111 631 -235 721 -71 18 -171 18 -240 0z m277 -307 c4 -57 7 -66
20 -58 8 5 33 10 56 10 30 0 46 -6 63 -24 20 -21 24 -38 28 -130 l6 -106 -37
0 -36 0 0 93 c0 97 -7 117 -44 117 -43 0 -56 -27 -56 -122 l0 -88 -35 0 -35 0
0 191 0 190 33 -3 32 -3 5 -67z m-220 40 c46 -24 90 -77 90 -109 0 -30 -54
-25 -74 6 -40 60 -120 69 -169 17 -33 -35 -42 -72 -27 -116 16 -48 53 -76 102
-76 32 0 47 7 75 35 26 26 44 35 69 35 32 0 33 -1 23 -27 -13 -34 -55 -80 -91
-99 -15 -8 -49 -14 -75 -14 -100 1 -173 75 -173 177 0 88 31 140 105 174 53
25 92 24 145 -3z"/>
</g>
</svg>
